<svg width="20" height="20" viewBox="0 0 20 20" fill="none" xmlns="http://www.w3.org/2000/svg">
<path d="M12.4998 12.5C12.4998 13.8807 11.3805 15 9.99984 15C8.61913 15 7.49984 13.8807 7.49984 12.5C7.49984 11.1192 8.61913 9.99996 9.99984 9.99996C11.3805 9.99996 12.4998 11.1192 12.4998 12.5ZM10.8332 12.5C10.8332 12.0397 10.4601 11.6666 9.99984 11.6666C9.5396 11.6666 9.1665 12.0397 9.1665 12.5C9.1665 12.9602 9.5396 13.3333 9.99984 13.3333C10.4601 13.3333 10.8332 12.9602 10.8332 12.5Z" fill="#2B2F36"/>
<path d="M5.4165 6.24996V6.66663H3.33317C2.4127 6.66663 1.6665 7.41282 1.6665 8.33329V16.6666C1.6665 17.5871 2.4127 18.3333 3.33317 18.3333H16.6665C17.587 18.3333 18.3332 17.5871 18.3332 16.6666V8.33329C18.3332 7.41282 17.587 6.66663 16.6665 6.66663H14.5832V6.24996C14.5832 3.71865 12.5311 1.66663 9.99984 1.66663C7.46853 1.66663 5.4165 3.71865 5.4165 6.24996ZM12.9165 6.66663H7.08317V6.24996C7.08317 4.63913 8.38901 3.33329 9.99984 3.33329C11.6107 3.33329 12.9165 4.63913 12.9165 6.24996V6.66663ZM3.33317 8.33329H16.6665V16.6666H3.33317V8.33329Z" fill="#2B2F36"/>
</svg>
