<svg width="20" height="20" viewBox="0 0 20 20" fill="none" xmlns="http://www.w3.org/2000/svg">
<path d="M5.83319 1.66669C6.29343 1.66669 6.66653 2.03979 6.66652 2.50004C6.66651 2.96027 6.29342 3.33335 5.83319 3.33335H3.33321L3.33321 5.83335C3.33321 6.29359 2.9601 6.66669 2.49986 6.66669C2.03962 6.66669 1.66651 6.29359 1.66651 5.83334L1.66654 3.33335C1.66654 2.41669 2.41654 1.66669 3.33321 1.66669H5.83319Z" fill="white"/>
<path d="M17.4998 6.66671C17.9601 6.66672 18.3332 6.29362 18.3332 5.83337V3.33339C18.3332 2.41672 17.5832 1.66672 16.6665 1.66672L14.1665 1.6667C13.7063 1.66669 13.3332 2.0398 13.3332 2.50004C13.3332 2.96028 13.7063 3.33339 14.1665 3.33339L16.6665 3.33339V5.83337C16.6665 6.2936 17.0396 6.6667 17.4998 6.66671Z" fill="white"/>
<path d="M18.3332 10C18.3332 9.53978 17.9601 9.16669 17.4998 9.16669H2.49984C2.0396 9.16669 1.6665 9.53978 1.6665 10C1.6665 10.4603 2.0396 10.8334 2.49984 10.8334H17.4998C17.9601 10.8334 18.3332 10.4603 18.3332 10Z" fill="white"/>
<path d="M14.1665 18.3334C13.7062 18.3334 13.3331 17.9602 13.3332 17.5C13.3332 17.0398 13.7063 16.6667 14.1665 16.6667H16.6665V14.1667C16.6665 13.7065 17.0396 13.3334 17.4998 13.3334C17.9601 13.3334 18.3332 13.7065 18.3332 14.1667L18.3331 16.6667C18.3331 17.5834 17.5831 18.3334 16.6665 18.3334H14.1665Z" fill="white"/>
<path d="M2.49986 13.3333C2.03961 13.3333 1.6665 13.7064 1.6665 14.1667V16.6666C1.6665 17.5833 2.4165 18.3333 3.33317 18.3333L5.83316 18.3333C6.2934 18.3333 6.6665 17.9602 6.6665 17.5C6.6665 17.0398 6.29341 16.6666 5.83317 16.6666H3.33317L3.33317 14.1667C3.33317 13.7064 2.96009 13.3333 2.49986 13.3333Z" fill="white"/>
</svg>
