<svg width="20" height="20" viewBox="0 0 20 20" fill="none" xmlns="http://www.w3.org/2000/svg">
<path d="M10.0002 17.5C14.1423 17.5 17.5002 14.1421 17.5002 9.99998C17.5002 5.85784 14.1423 2.49998 10.0002 2.49998C5.85803 2.49998 2.50016 5.85784 2.50016 9.99998C2.50016 14.1421 5.85803 17.5 10.0002 17.5ZM10.0002 19.1666C4.93755 19.1666 0.833496 15.0626 0.833496 9.99998C0.833496 4.93737 4.93755 0.833313 10.0002 0.833313C15.0628 0.833313 19.1668 4.93737 19.1668 9.99998C19.1668 15.0626 15.0628 19.1666 10.0002 19.1666ZM9.0335 11.8999L13.1604 7.77303C13.4843 7.44914 14.0103 7.45389 14.3342 7.77778C14.658 8.10168 14.6628 8.6276 14.3403 8.95293C12.7671 10.5402 11.2131 12.1542 9.60246 13.7029C9.28442 14.0087 8.78251 14.0088 8.46595 13.7014C7.62431 12.8843 6.80502 12.042 5.98023 11.2075C5.65741 10.8809 5.65966 10.354 5.98438 10.0293C6.30909 9.70461 6.83595 9.70239 7.16067 10.0271L9.0335 11.8999Z" fill="white"/>
</svg>
