<svg width="24" height="24" viewBox="0 0 24 24" fill="none" xmlns="http://www.w3.org/2000/svg">
  <path d="M15.5 6.5a5 5 0 1 0-10.002.002A5 5 0 0 0 15.5 6.5Zm-5 3a3.001 3.001 0 0 1 0-6 3.001 3.001 0 0 1 0 6ZM4 19c0-.346.045-.68.125-1 .445-1.725 2.01-3 3.875-3h3.025a.5.5 0 0 0 .5-.5v-1a.5.5 0 0 0-.5-.5H8a6 6 0 0 0-6 6v2c0 .552.45 1 1 1h8.025a.5.5 0 0 0 .5-.5v-1a.5.5 0 0 0-.5-.5H4v-1Zm10.805-3.593a1 1 0 0 0-1.614 1.181l.001.002.002.001.002.004.008.01.02.027c.018.022.04.052.07.087a6.54 6.54 0 0 0 .657.68l-.75 1.001a1 1 0 1 0 1.6 1.2l.83-1.108c.407.182.864.332 1.369.421V20a1 1 0 1 0 2 0v-1.087c.505-.089.962-.24 1.37-.42l.83 1.107a1 1 0 1 0 1.6-1.2l-.75-1.001a6.57 6.57 0 0 0 .657-.68l.069-.087.033-.044a1 1 0 0 0-1.614-1.18l-.004.005a3.375 3.375 0 0 1-.186.215 4.711 4.711 0 0 1-.642.566C19.797 16.608 19 17 18 17s-1.797-.391-2.363-.806a4.705 4.705 0 0 1-.796-.741 1.88 1.88 0 0 1-.031-.04l-.005-.006Z" fill="#2B2F36"/>
</svg>
