<svg width="20" height="20" viewBox="0 0 20 20" fill="none" xmlns="http://www.w3.org/2000/svg">
<path d="M9.99992 17.5C5.85778 17.5 2.49992 14.1421 2.49992 9.99998C2.49992 5.85784 5.85778 2.49998 9.99992 2.49998C14.1421 2.49998 17.4999 5.85784 17.4999 9.99998C17.4999 14.1421 14.1421 17.5 9.99992 17.5ZM9.99992 19.1666C15.0625 19.1666 19.1666 15.0626 19.1666 9.99998C19.1666 4.93737 15.0625 0.833313 9.99992 0.833313C4.93731 0.833313 0.833252 4.93737 0.833252 9.99998C0.833252 15.0626 4.93731 19.1666 9.99992 19.1666Z" fill="white"/>
<path d="M9.99992 5.83331C9.53968 5.83331 9.16658 6.20641 9.16658 6.66665V10.8333C9.16658 11.2935 9.53968 11.6666 9.99992 11.6666C10.4602 11.6666 10.8333 11.2935 10.8333 10.8333V6.66665C10.8333 6.20641 10.4602 5.83331 9.99992 5.83331Z" fill="white"/>
<path d="M9.99992 12.5C9.53968 12.5 9.16658 12.8731 9.16658 13.3333C9.16658 13.7935 9.53968 14.1666 9.99992 14.1666C10.4602 14.1666 10.8333 13.7935 10.8333 13.3333C10.8333 12.8731 10.4602 12.5 9.99992 12.5Z" fill="white"/>
</svg>
