<svg width="24" height="24" viewBox="0 0 24 24" fill="none" xmlns="http://www.w3.org/2000/svg">
  <path d="M15.5 6.5a5 5 0 1 0-10.002.002A5 5 0 0 0 15.5 6.5Zm-5 3a3.001 3.001 0 0 1 0-6 3.001 3.001 0 0 1 0 6ZM4 19c0-.346.045-.68.125-1 .445-1.725 2.01-3 3.875-3h3.025a.5.5 0 0 0 .5-.5v-1a.5.5 0 0 0-.5-.5H8a6 6 0 0 0-6 6v2c0 .552.45 1 1 1h8.025a.5.5 0 0 0 .5-.5v-1a.5.5 0 0 0-.5-.5H4v-1Zm15-1.5a1.5 1.5 0 1 1-3 0 1.5 1.5 0 0 1 3 0Z" fill="#2B2F36"/>
  <path d="M17.5 13C14 13 12 16 12 17.5s2 4.5 5.5 4.5 5.5-3 5.5-4.5-2-4.5-5.5-4.5Zm-3.499 4.503v-.006c.005-.03.03-.186.16-.45.145-.293.375-.63.69-.945A3.677 3.677 0 0 1 17.5 15c1.14 0 2.025.479 2.648 1.102.316.316.546.652.69.945.13.264.156.42.16.45L21 17.5v.003c-.005.03-.03.186-.16.45-.145.293-.375.63-.69.945A3.677 3.677 0 0 1 17.5 20a3.677 3.677 0 0 1-2.648-1.102 3.648 3.648 0 0 1-.69-.945 1.622 1.622 0 0 1-.16-.45Z" fill="#2B2F36"/>
</svg>
