<svg width="20" height="20" viewBox="0 0 20 20" fill="none" xmlns="http://www.w3.org/2000/svg">
<path d="M8.82167 9.99998L7.0539 8.23221C6.72847 7.90677 6.72847 7.37914 7.0539 7.0537C7.37934 6.72826 7.90698 6.72826 8.23241 7.0537L10.0002 8.82147L11.7679 7.0537C12.0934 6.72826 12.621 6.72826 12.9465 7.0537C13.2719 7.37914 13.2719 7.90677 12.9465 8.23221L11.1787 9.99998L12.9465 11.7677C13.2719 12.0932 13.2719 12.6208 12.9465 12.9463C12.621 13.2717 12.0934 13.2717 11.7679 12.9463L10.0002 11.1785L8.23241 12.9463C7.90698 13.2717 7.37934 13.2717 7.0539 12.9463C6.72847 12.6208 6.72847 12.0932 7.0539 11.7677L8.82167 9.99998Z" fill="white"/>
<path d="M0.833496 9.99998C0.833496 15.0626 4.93755 19.1666 10.0002 19.1666C15.0628 19.1666 19.1668 15.0626 19.1668 9.99998C19.1668 4.93737 15.0628 0.833313 10.0002 0.833313C4.93755 0.833313 0.833496 4.93737 0.833496 9.99998ZM17.5002 9.99998C17.5002 14.1421 14.1423 17.5 10.0002 17.5C5.85803 17.5 2.50016 14.1421 2.50016 9.99998C2.50016 5.85784 5.85803 2.49998 10.0002 2.49998C14.1423 2.49998 17.5002 5.85784 17.5002 9.99998Z" fill="white"/>
</svg>
