<svg width="20" height="20" viewBox="0 0 20 20" fill="none" xmlns="http://www.w3.org/2000/svg">
<path d="M7.50016 5.00004C7.50016 4.5398 7.87326 4.16671 8.3335 4.16671H11.6668C12.1271 4.16671 12.5002 4.5398 12.5002 5.00004C12.5002 5.46028 12.1271 5.83337 11.6668 5.83337H8.3335C7.87326 5.83337 7.50016 5.46028 7.50016 5.00004Z" fill="#2B2F36"/>
<path d="M9.16683 14.1667C8.70659 14.1667 8.3335 14.5398 8.3335 15C8.3335 15.4603 8.70659 15.8334 9.16683 15.8334H10.8335C11.2937 15.8334 11.6668 15.4603 11.6668 15C11.6668 14.5398 11.2937 14.1667 10.8335 14.1667H9.16683Z" fill="#2B2F36"/>
<path d="M5.00016 0.833374C4.07969 0.833374 3.3335 1.57957 3.3335 2.50004V17.5C3.3335 18.4205 4.07969 19.1667 5.00016 19.1667H15.0002C15.9206 19.1667 16.6668 18.4205 16.6668 17.5V2.50004C16.6668 1.57957 15.9206 0.833374 15.0002 0.833374H5.00016ZM15.0002 2.50004V17.5H5.00016V2.50004H15.0002Z" fill="#2B2F36"/>
</svg>
